<?xml version="1.0" encoding="utf-8"?>
<!-- Generator: Adobe Illustrator 22.0.1, SVG Export Plug-In . SVG Version: 6.00 Build 0)  -->
<svg version="1.1" id="Layer_1" xmlns="http://www.w3.org/2000/svg" xmlns:xlink="http://www.w3.org/1999/xlink" x="0px" y="0px"
	 viewBox="0 0 225.5 71.1" style="enable-background:new 0 0 225.5 71.1;" xml:space="preserve">
<style type="text/css">
	.st0{fill:#FFFFFF;}
</style>
<title>ntg-desert-rose-reverse</title>
<g id="Layer_2_1_">
	<g id="Layer_1-2">
		<g>
			<path class="st0" d="M27.9,19.9v34.3h-2.3c-0.3,0-0.6-0.1-0.9-0.2c-0.3-0.2-0.5-0.4-0.7-0.6L4.1,27.5c0,0.4,0.1,0.8,0.1,1.2
				c0,0.4,0,0.7,0,1.1v24.4H0.1V19.9h2.4c0.2,0,0.4,0,0.5,0c0.1,0,0.3,0.1,0.4,0.1c0.1,0.1,0.2,0.1,0.3,0.2c0.1,0.1,0.2,0.3,0.4,0.4
				L24,46.5c0-0.4-0.1-0.8-0.1-1.2c0-0.4,0-0.8,0-1.1V19.9H27.9z"/>
			<path class="st0" d="M58,23.8H46.9v30.4h-4.6V23.8H31.2v-3.9H58L58,23.8z"/>
			<path class="st0" d="M55.3,51.5c0-0.8,0.3-1.6,0.8-2.1c0.9-0.9,2.2-1.1,3.3-0.6c0.7,0.3,1.3,0.9,1.6,1.6c0.3,0.8,0.3,1.6,0,2.4
				c-0.2,0.4-0.4,0.7-0.6,0.9c-0.3,0.3-0.6,0.5-1,0.6c-0.8,0.3-1.6,0.3-2.3,0c-0.4-0.1-0.7-0.4-0.9-0.6c-0.3-0.3-0.5-0.6-0.6-0.9
				C55.3,52.3,55.3,51.9,55.3,51.5z"/>
			<path class="st0" d="M93.7,37.7v13.1c-1.7,1.2-3.5,2.2-5.5,2.8c-2.1,0.6-4.2,0.9-6.4,0.9c-2.5,0-5.1-0.4-7.5-1.3
				c-2.1-0.8-4.1-2-5.7-3.6c-1.6-1.6-2.8-3.5-3.6-5.5c-0.9-2.3-1.3-4.7-1.3-7.1c0-2.4,0.4-4.9,1.2-7.1c0.8-2.1,2-4,3.5-5.5
				c1.6-1.6,3.4-2.8,5.5-3.6c2.3-0.9,4.8-1.3,7.3-1.3c1.3,0,2.5,0.1,3.8,0.3c1.1,0.2,2.2,0.5,3.2,0.9c1,0.4,1.9,0.8,2.7,1.4
				c0.8,0.5,1.6,1.1,2.4,1.8L92.1,26c-0.2,0.3-0.5,0.5-0.8,0.6c-0.4,0.1-0.8,0-1.1-0.2c-0.4-0.2-0.8-0.5-1.3-0.8
				c-0.6-0.4-1.2-0.7-1.8-0.9c-0.8-0.3-1.7-0.6-2.5-0.8c-1.1-0.2-2.3-0.3-3.4-0.3c-1.8,0-3.6,0.3-5.2,0.9c-1.5,0.6-2.9,1.5-4,2.7
				c-1.1,1.2-2,2.7-2.5,4.3c-0.6,1.8-0.9,3.7-0.9,5.6c0,2,0.3,3.9,0.9,5.8c0.6,1.6,1.5,3.1,2.6,4.3c1.2,1.2,2.6,2.1,4.1,2.7
				c3.1,1.1,6.5,1.2,9.7,0.4c1.3-0.4,2.5-0.9,3.6-1.5v-7.5h-5.3c-0.3,0-0.5-0.1-0.7-0.3c-0.2-0.2-0.3-0.4-0.3-0.6v-2.6H93.7z"/>
			<path class="st0" d="M131,37.1c0,2.4-0.4,4.8-1.2,7.1c-0.8,2.1-1.9,3.9-3.4,5.5c-1.5,1.6-3.3,2.8-5.3,3.6
				c-4.4,1.7-9.3,1.7-13.8,0c-2-0.8-3.8-2-5.3-3.6c-1.5-1.6-2.7-3.5-3.4-5.5c-0.8-2.3-1.2-4.7-1.2-7.1c0-2.4,0.4-4.8,1.2-7.1
				c0.8-2.1,1.9-3.9,3.4-5.5c1.5-1.6,3.3-2.8,5.3-3.6c4.4-1.7,9.3-1.7,13.8,0c2,0.8,3.8,2.1,5.3,3.6c1.5,1.6,2.7,3.5,3.4,5.5
				C130.6,32.3,131,34.6,131,37.1z M126.3,37.1c0-1.9-0.3-3.8-0.9-5.7c-0.5-1.6-1.3-3-2.4-4.2c-1.1-1.2-2.4-2.1-3.8-2.7
				c-3.2-1.2-6.8-1.2-10,0c-1.5,0.6-2.8,1.5-3.8,2.7c-1.1,1.2-1.9,2.7-2.5,4.2c-0.6,1.8-0.9,3.7-0.9,5.7c0,1.9,0.3,3.8,0.9,5.7
				c0.5,1.6,1.3,3,2.5,4.2c1.1,1.2,2.4,2.1,3.8,2.7c3.2,1.2,6.8,1.2,10,0c1.5-0.6,2.8-1.5,3.8-2.7c1.1-1.2,1.9-2.7,2.4-4.2
				C126,40.9,126.3,39,126.3,37.1z"/>
			<path class="st0" d="M162.6,19.9l-14,34.3h-4.2l-14-34.3h3.7c0.4,0,0.7,0.1,1,0.3c0.3,0.2,0.5,0.5,0.6,0.8l9.7,24.2
				c0.2,0.5,0.4,1.1,0.6,1.8c0.2,0.6,0.4,1.3,0.5,2c0.2-0.7,0.3-1.4,0.5-2c0.2-0.6,0.4-1.2,0.6-1.8l9.6-24.2
				c0.1-0.3,0.3-0.6,0.6-0.8c0.3-0.2,0.6-0.4,1-0.3H162.6z"/>
			<path class="st0" d="M156.1,51.5c0-0.4,0.1-0.8,0.2-1.2c0.1-0.4,0.4-0.7,0.6-1c0.9-0.9,2.2-1.1,3.3-0.6c0.7,0.3,1.3,0.9,1.6,1.6
				c0.3,0.8,0.3,1.6,0,2.4c-0.2,0.4-0.4,0.7-0.6,0.9c-0.3,0.3-0.6,0.5-1,0.6c-0.8,0.3-1.6,0.3-2.3,0c-0.4-0.1-0.7-0.4-0.9-0.6
				C156.4,53.1,156.1,52.3,156.1,51.5z"/>
			<path class="st0" d="M198,54.2h-3.6c-0.4,0-0.7-0.1-1-0.3c-0.3-0.2-0.5-0.5-0.6-0.8l-3.2-8.3h-15.4l-3.2,8.3
				c-0.1,0.3-0.3,0.6-0.6,0.8c-0.3,0.2-0.6,0.3-1,0.3h-3.6l13.7-34.3h4.7L198,54.2z M188.3,41.5L183,27.5c-0.2-0.4-0.3-0.9-0.5-1.4
				c-0.2-0.5-0.3-1.1-0.5-1.8c-0.3,1.1-0.6,2.2-1,3.2l-5.4,13.9H188.3z"/>
			<path class="st0" d="M211.9,50.5c1.3,0,2.6-0.2,3.8-0.7c1.1-0.5,2-1.1,2.8-2c0.8-0.9,1.4-1.9,1.8-3.1c0.4-1.3,0.6-2.6,0.6-3.9
				V19.9h4.6v20.8c0,1.9-0.3,3.7-0.9,5.5c-0.6,1.6-1.5,3.1-2.7,4.4c-1.2,1.3-2.7,2.2-4.3,2.9c-3.7,1.4-7.7,1.4-11.4,0
				c-1.6-0.7-3.1-1.6-4.3-2.9c-1.2-1.3-2.1-2.8-2.7-4.4c-0.6-1.8-1-3.6-0.9-5.5V19.9h4.6v20.8c0,1.3,0.2,2.7,0.6,3.9
				c0.4,1.1,1,2.2,1.8,3.1c0.8,0.9,1.8,1.6,2.8,2C209.3,50.3,210.6,50.5,211.9,50.5z"/>
		</g>
	</g>
</g>
</svg>
